<mxfile host="app.diagrams.net" modified="2021-12-25T15:04:00.570Z" agent="5.0 (Macintosh; Intel Mac OS X 10_15_7) AppleWebKit/605.1.15 (KHTML, like Gecko) Version/15.2 Safari/605.1.15" etag="plS6YVuGPR99FQoA-_xF" version="16.1.0" type="github">
  <diagram id="9b-n6-_HOrm0a3b0DLh-" name="Page-1">
    <mxGraphModel dx="1298" dy="868" grid="1" gridSize="10" guides="1" tooltips="1" connect="1" arrows="1" fold="1" page="1" pageScale="1" pageWidth="1200" pageHeight="1920" math="0" shadow="0">
      <root>
        <mxCell id="0" />
        <mxCell id="1" parent="0" />
      </root>
    </mxGraphModel>
  </diagram>
</mxfile>
